# xmcd CD database file
# Copyright (C) 1993-1998 Ti Kan
# 
# Track frame offsets:
#     150
#     18375
#     34100
#     43387
#     65327
#     78422
#     91585
#     105170
#     121377
#     132740
#     144407
# 
# Disc length: 2147 seconds
# 
# Revision: 1
# Processed by: cddbd v1.4b41PL1 Copyright (c) Steve Scherf et al.
# Submitted via: DiscPlay 4.0.4
# 
DISCID=8d08610b
DTITLE=Southern Thunder - Stormin' The South
DYEAR=1900
DGENRE=
TTITLE0=Stormin' The South
TTITLE1=Radio Flyer
TTITLE2=Set In My Ways
TTITLE3=Someone I Can't Live Without
TTITLE4=Quarters, Nickels, and Dimes
TTITLE5=Crazy About You
TTITLE6=The End Is Not In Sight - The Cowboy Tune
TTITLE7=Ripley - Believe It Or Not
TTITLE8=I Wish You Love
TTITLE9=The Centipede Song
TTITLE10=Drunk In Every Crowd
EXTD=
EXTT0=
EXTT1=
EXTT2=
EXTT3=
EXTT4=
EXTT5=
EXTT6=
EXTT7=
EXTT8=
EXTT9=
EXTT10=
PLAYORDER=
